<?xml version="1.0" encoding="utf-8"?>
<!-- Generator: Adobe Illustrator 16.0.4, SVG Export Plug-In . SVG Version: 6.00 Build 0)  -->
<!DOCTYPE svg PUBLIC "-//W3C//DTD SVG 1.1//EN" "http://www.w3.org/Graphics/SVG/1.1/DTD/svg11.dtd">
<svg version="1.1" xmlns="http://www.w3.org/2000/svg" xmlns:xlink="http://www.w3.org/1999/xlink" x="0px" y="0px"
	 width="240.827px" height="176.941px" viewBox="0 0 240.827 176.941" enable-background="new 0 0 240.827 176.941"
	 xml:space="preserve">
<g id="Noir" display="none">
	<path display="inline" d="M75.555,113.219c0,0,2.68-68.343,5.509-68.343c0.596,0,0.894,0.148,15.337,0.447
		c1.34,0,1.488,1.341,1.488,2.085c0,0.298-0.148,1.34-0.148,1.488c-0.15,4.468-1.34,24.121-5.509,69.831
		c-0.149,1.938-0.447,2.531-2.233,2.829c-4.617-0.298-9.083,0.895-13.848-0.446c-0.149,0-0.446-0.298-0.446-0.445
		C75.555,119.473,75.555,114.261,75.555,113.219 M79.278,15.395c0-15.485,18.761-22.334,22.93-5.956c0,0,0.148,1.787,0.148,2.383
		c0,6.7-3.126,14.74-10.72,14.74c-4.466,0-10.572-2.084-12.21-6.849C79.426,18.968,79.278,15.991,79.278,15.395"/>
	<path display="inline" d="M100.271,106.073c0-14.294,6.998-26.354,21.739-31.566c5.807-2.084,15.783-2.68,19.654-2.68
		c1.786,0-1.191-18.463-10.869-18.463c-8.041,0-13.104,6.551-18.612,10.72c0,0-10.72-8.636-10.72-8.933
		c0-1.489,2.233-3.574,3.127-4.914c9.677-9.827,18.76-13.102,30.821-13.102c19.951,0,24.865,16.526,25.461,32.309v1.341
		c0.744,15.485,0.744,31.416,0,46.902c-0.447,1.488-2.828,4.317-12.359,5.359h-0.594c-5.51,0-1.192-6.104-4.468-7.594
		c-2.233,1.638-2.978,3.425-5.657,4.914c-5.66,3.722-13.252,4.169-20.25,4.169c-11.167,0-16.827-8.487-17.272-17.421V106.073z
		 M142.111,102.796v-3.722c0-5.062-0.149-12.954-2.681-12.954c-22.78,0-21.738,16.378-21.59,19.505
		C118.734,112.326,142.111,105.179,142.111,102.796"/>
	<path display="inline" d="M219.536,43.24c15.486,9.677,21.291,25.906,21.291,41.542c0,14.293-9.082,28.438-24.566,34.543
		c-8.04,3.126-18.463,2.382-26.95-0.447c-16.974-6.7-22.93-25.014-22.93-39.308C166.381,54.852,190.8,29.987,219.536,43.24
		 M190.8,94.012c2.382,5.808,7.594,9.529,14.592,9.529c12.358,0,16.229-11.762,16.229-20.399c0-31.118-34.691-37.224-34.691-4.02
		C186.929,84.185,188.715,89.248,190.8,94.012"/>
	<path display="inline" fill="#601288" d="M39.214,116.655C-19.475,112.742-6.725-0.303,40.829,2.895
		c10.717,0.721,23.373,4.071,24.49,5.932c1.117,1.862-1.489,14.89-2.978,16.007c-1.489,1.117,1.117-3.35-14.975-3.595
		c-28.992-0.442-35.6,63.89-9.836,75.904c0,0,14.76,1.768,18.633,3.635c2.747,1.325-0.132,38.812-1.444,39.504
		c-1.312,0.693-12.947,0.737-15.319-1.519C37.028,136.508,39.214,116.655,39.214,116.655"/>
	<path display="inline" fill="#601288" d="M33.588,165.774c0-15.488,18.762-22.336,22.932-5.957c0,0,0.149,1.787,0.149,2.383
		c0,6.7-3.127,14.741-10.722,14.741c-4.467,0-10.573-2.085-12.21-6.85C33.737,169.347,33.588,166.369,33.588,165.774"/>
</g>
<g id="Every_Blanc">
	<path fill="#FFFFFF" d="M75.555,113.219c0,0,2.68-68.343,5.509-68.343c0.596,0,0.894,0.148,15.337,0.447
		c1.34,0,1.488,1.341,1.488,2.085c0,0.298-0.148,1.34-0.148,1.488c-0.15,4.468-1.34,24.121-5.509,69.831
		c-0.149,1.938-0.447,2.531-2.233,2.829c-4.617-0.298-9.083,0.895-13.848-0.446c-0.149,0-0.446-0.298-0.446-0.445
		C75.555,119.473,75.555,114.261,75.555,113.219 M79.278,15.395c0-15.485,18.761-22.334,22.93-5.956c0,0,0.148,1.787,0.148,2.383
		c0,6.7-3.126,14.74-10.72,14.74c-4.466,0-10.572-2.084-12.21-6.849C79.426,18.968,79.278,15.991,79.278,15.395"/>
	<path fill="#FFFFFF" d="M100.271,106.073c0-14.294,6.998-26.354,21.739-31.566c5.807-2.084,15.783-2.68,19.654-2.68
		c1.786,0-1.191-18.463-10.869-18.463c-8.041,0-13.104,6.551-18.612,10.72c0,0-10.72-8.636-10.72-8.933
		c0-1.489,2.233-3.574,3.127-4.914c9.677-9.827,18.76-13.102,30.821-13.102c19.951,0,24.865,16.526,25.461,32.309v1.341
		c0.744,15.485,0.744,31.416,0,46.902c-0.447,1.488-2.828,4.317-12.359,5.359h-0.594c-5.51,0-1.192-6.104-4.468-7.594
		c-2.233,1.638-2.978,3.425-5.657,4.914c-5.66,3.722-13.252,4.169-20.25,4.169c-11.167,0-16.827-8.487-17.272-17.421V106.073z
		 M142.111,102.796v-3.722c0-5.062-0.149-12.954-2.681-12.954c-22.78,0-21.738,16.378-21.59,19.505
		C118.734,112.326,142.111,105.179,142.111,102.796"/>
	<path fill="#FFFFFF" d="M219.536,43.24c15.486,9.677,21.291,25.906,21.291,41.542c0,14.293-9.082,28.438-24.566,34.543
		c-8.04,3.126-18.463,2.382-26.95-0.447c-16.974-6.7-22.93-25.014-22.93-39.308C166.381,54.852,190.8,29.987,219.536,43.24
		 M190.8,94.012c2.382,5.808,7.594,9.529,14.592,9.529c12.358,0,16.229-11.762,16.229-20.399c0-31.118-34.691-37.224-34.691-4.02
		C186.929,84.185,188.715,89.248,190.8,94.012"/>
	<path fill="#FFFFFF" d="M39.214,116.655C-19.475,112.742-6.725-0.303,40.829,2.895c10.717,0.721,23.373,4.071,24.49,5.932
		c1.117,1.862-1.489,14.89-2.978,16.007c-1.489,1.117,1.117-3.35-14.975-3.595c-28.992-0.442-35.6,63.89-9.836,75.904
		c0,0,14.76,1.768,18.633,3.635c2.747,1.325-0.132,38.812-1.444,39.504c-1.312,0.693-12.947,0.737-15.319-1.519
		C37.028,136.508,39.214,116.655,39.214,116.655"/>
	<path fill="#FFFFFF" d="M33.588,165.774c0-15.488,18.762-22.336,22.932-5.957c0,0,0.149,1.787,0.149,2.383
		c0,6.7-3.127,14.741-10.722,14.741c-4.467,0-10.573-2.085-12.21-6.85C33.737,169.347,33.588,166.369,33.588,165.774"/>
</g>
<g id="Blanc" display="none">
	<path display="inline" fill="#A4A5A5" d="M75.555,113.219c0,0,2.68-68.343,5.509-68.343c0.596,0,0.894,0.148,15.337,0.447
		c1.34,0,1.488,1.341,1.488,2.085c0,0.298-0.148,1.34-0.148,1.488c-0.15,4.468-1.34,24.121-5.509,69.831
		c-0.149,1.938-0.447,2.531-2.233,2.829c-4.617-0.298-9.083,0.895-13.848-0.446c-0.149,0-0.446-0.298-0.446-0.445
		C75.555,119.473,75.555,114.261,75.555,113.219 M79.278,15.395c0-15.485,18.761-22.334,22.93-5.956c0,0,0.148,1.787,0.148,2.383
		c0,6.7-3.126,14.74-10.72,14.74c-4.466,0-10.572-2.084-12.21-6.849C79.426,18.968,79.278,15.991,79.278,15.395"/>
	<path display="inline" fill="#A4A5A5" d="M100.271,106.073c0-14.294,6.998-26.354,21.739-31.566
		c5.807-2.084,15.783-2.68,19.654-2.68c1.786,0-1.191-18.463-10.869-18.463c-8.041,0-13.104,6.551-18.612,10.72
		c0,0-10.72-8.636-10.72-8.933c0-1.489,2.233-3.574,3.127-4.914c9.677-9.827,18.76-13.102,30.821-13.102
		c19.951,0,24.865,16.526,25.461,32.309v1.341c0.744,15.485,0.744,31.416,0,46.902c-0.447,1.488-2.828,4.317-12.359,5.359h-0.594
		c-5.51,0-1.192-6.104-4.468-7.594c-2.233,1.638-2.978,3.425-5.657,4.914c-5.66,3.722-13.252,4.169-20.25,4.169
		c-11.167,0-16.827-8.487-17.272-17.421V106.073z M142.111,102.796v-3.722c0-5.062-0.149-12.954-2.681-12.954
		c-22.78,0-21.738,16.378-21.59,19.505C118.734,112.326,142.111,105.179,142.111,102.796"/>
	<path display="inline" fill="#A4A5A5" d="M219.536,43.24c15.486,9.677,21.291,25.906,21.291,41.542
		c0,14.293-9.082,28.438-24.566,34.543c-8.04,3.126-18.463,2.382-26.95-0.447c-16.974-6.7-22.93-25.014-22.93-39.308
		C166.381,54.852,190.8,29.987,219.536,43.24 M190.8,94.012c2.382,5.808,7.594,9.529,14.592,9.529
		c12.358,0,16.229-11.762,16.229-20.399c0-31.118-34.691-37.224-34.691-4.02C186.929,84.185,188.715,89.248,190.8,94.012"/>
	<path display="inline" fill="#601288" d="M39.214,116.655C-19.475,112.742-6.725-0.303,40.829,2.895
		c10.717,0.721,23.373,4.071,24.49,5.932c1.117,1.862-1.489,14.89-2.978,16.007c-1.489,1.117,1.117-3.35-14.975-3.595
		c-28.992-0.442-35.6,63.89-9.836,75.904c0,0,14.76,1.768,18.633,3.635c2.747,1.325-0.132,38.812-1.444,39.504
		c-1.312,0.693-12.947,0.737-15.319-1.519C37.028,136.508,39.214,116.655,39.214,116.655"/>
	<path display="inline" fill="#601288" d="M33.588,165.774c0-15.488,18.762-22.336,22.932-5.957c0,0,0.149,1.787,0.149,2.383
		c0,6.7-3.127,14.741-10.722,14.741c-4.467,0-10.573-2.085-12.21-6.85C33.737,169.347,33.588,166.369,33.588,165.774"/>
</g>
<g id="Gris" display="none">
	<path display="inline" fill="#A4A5A5" d="M75.555,113.219c0,0,2.68-68.343,5.509-68.343c0.596,0,0.894,0.148,15.337,0.447
		c1.34,0,1.488,1.341,1.488,2.085c0,0.298-0.148,1.34-0.148,1.488c-0.15,4.468-1.34,24.121-5.509,69.831
		c-0.149,1.938-0.447,2.531-2.233,2.829c-4.617-0.298-9.083,0.895-13.848-0.446c-0.149,0-0.446-0.298-0.446-0.445
		C75.555,119.473,75.555,114.261,75.555,113.219 M79.278,15.395c0-15.485,18.761-22.334,22.93-5.956c0,0,0.148,1.787,0.148,2.383
		c0,6.7-3.126,14.74-10.72,14.74c-4.466,0-10.572-2.084-12.21-6.849C79.426,18.968,79.278,15.991,79.278,15.395"/>
	<path display="inline" fill="#A4A5A5" d="M100.271,106.073c0-14.294,6.998-26.354,21.739-31.566
		c5.807-2.084,15.783-2.68,19.654-2.68c1.786,0-1.191-18.463-10.869-18.463c-8.041,0-13.104,6.551-18.612,10.72
		c0,0-10.72-8.636-10.72-8.933c0-1.489,2.233-3.574,3.127-4.914c9.677-9.827,18.76-13.102,30.821-13.102
		c19.951,0,24.865,16.526,25.461,32.309v1.341c0.744,15.485,0.744,31.416,0,46.902c-0.447,1.488-2.828,4.317-12.359,5.359h-0.594
		c-5.51,0-1.192-6.104-4.468-7.594c-2.233,1.638-2.978,3.425-5.657,4.914c-5.66,3.722-13.252,4.169-20.25,4.169
		c-11.167,0-16.827-8.487-17.272-17.421V106.073z M142.111,102.796v-3.722c0-5.062-0.149-12.954-2.681-12.954
		c-22.78,0-21.738,16.378-21.59,19.505C118.734,112.326,142.111,105.179,142.111,102.796"/>
	<path display="inline" fill="#A4A5A5" d="M219.536,43.24c15.486,9.677,21.291,25.906,21.291,41.542
		c0,14.293-9.082,28.438-24.566,34.543c-8.04,3.126-18.463,2.382-26.95-0.447c-16.974-6.7-22.93-25.014-22.93-39.308
		C166.381,54.852,190.8,29.987,219.536,43.24 M190.8,94.012c2.382,5.808,7.594,9.529,14.592,9.529
		c12.358,0,16.229-11.762,16.229-20.399c0-31.118-34.691-37.224-34.691-4.02C186.929,84.185,188.715,89.248,190.8,94.012"/>
	<path display="inline" fill="#601288" d="M39.214,116.655C-19.475,112.742-6.725-0.303,40.829,2.895
		c10.717,0.721,23.373,4.071,24.49,5.932c1.117,1.862-1.489,14.89-2.978,16.007c-1.489,1.117,1.117-3.35-14.975-3.595
		c-28.992-0.442-35.6,63.89-9.836,75.904c0,0,14.76,1.768,18.633,3.635c2.747,1.325-0.132,38.812-1.444,39.504
		c-1.312,0.693-12.947,0.737-15.319-1.519C37.028,136.508,39.214,116.655,39.214,116.655"/>
	<path display="inline" fill="#601288" d="M33.588,165.774c0-15.488,18.762-22.336,22.932-5.957c0,0,0.149,1.787,0.149,2.383
		c0,6.7-3.127,14.741-10.722,14.741c-4.467,0-10.573-2.085-12.21-6.85C33.737,169.347,33.588,166.369,33.588,165.774"/>
</g>
</svg>
